<svg xmlns="http://www.w3.org/2000/svg" width="278" height="93" viewBox="0 0 278 93" fill="none">
  <path d="M6.5 1C3.73858 1 1.5 3.23858 1.5 6V69.5C1.5 72.2614 3.73858 74.5 6.5 74.5H53.5C55.433 74.5 57 72.933 57 71C57 69.067 58.567 67.5 60.5 67.5H99.2246C102.437 67.5 104.816 70.4857 104.098 73.6169L101.402 85.3831C100.684 88.5143 103.063 91.5 106.275 91.5H164.896C167.048 91.5 168.959 90.1228 169.64 88.0811L175.36 70.9189C176.041 68.8772 177.952 67.5 180.104 67.5H223.25C224.493 67.5 225.5 68.5074 225.5 69.75C225.5 70.9926 226.507 72 227.75 72H271.5C274.261 72 276.5 69.7614 276.5 67V6C276.5 3.23858 274.261 1 271.5 1H225.75C223.403 1 221.5 2.90279 221.5 5.25C221.5 7.59721 219.597 9.5 217.25 9.5H61.25C58.9028 9.5 57 7.59721 57 5.25C57 2.90279 55.0972 1 52.75 1H6.5Z" fill="#FFF2E6" stroke="#FFDAAE" stroke-width="2"/>
</svg>