<svg xmlns="http://www.w3.org/2000/svg" width="186" height="157" viewBox="0 0 186 157" fill="none">
  <path d="M38 6C38 3.23858 40.2386 1 43 1H162.5C165.261 1 167.5 3.23858 167.5 6V62.5C167.5 65.2614 165.261 67.5 162.5 67.5C159.739 67.5 157.5 69.7386 157.5 72.5V96.5C157.5 99.2614 159.739 101.5 162.5 101.5H179.5C182.261 101.5 184.5 103.739 184.5 106.5V122.5C184.5 125.261 182.261 127.5 179.5 127.5C176.739 127.5 174.5 129.739 174.5 132.5V150.5C174.5 153.261 172.261 155.5 169.5 155.5H6.5C3.73858 155.5 1.5 153.261 1.5 150.5V106.5C1.5 103.739 3.73858 101.5 6.5 101.5H45C47.7614 101.5 50 99.2614 50 96.5V72.5C50 69.7386 47.7614 67.5 45 67.5H43C40.2386 67.5 38 65.2614 38 62.5V6Z" fill="#FFFBF1" stroke="#FAEAB9" stroke-width="2"/>
</svg>