<svg xmlns="http://www.w3.org/2000/svg" width="110" height="103" viewBox="0 0 110 103" fill="none">
  <path d="M6.79639 20.8623C4.03497 20.8623 1.79639 23.1009 1.79639 25.8623V71.9075C1.79639 74.6689 4.03496 76.9075 6.79639 76.9075H18.5917C21.3532 76.9075 23.5917 79.1461 23.5917 81.9075V89.9665C23.5917 92.7279 25.8303 94.9665 28.5917 94.9665H36.0462C37.7658 94.9665 39.1598 96.3605 39.1598 98.0801C39.1598 99.7997 40.5538 101.194 42.2734 101.194H63.4461C65.1657 101.194 66.5597 99.7997 66.5597 98.0801C66.5597 96.3605 67.9537 94.9665 69.6733 94.9665H77.7505C80.5119 94.9665 82.7505 92.7279 82.7505 89.9665V86.8893C82.7505 84.1279 84.9891 81.8893 87.7505 81.8893H103.282C106.044 81.8893 108.282 79.6507 108.282 76.8893V25.8623C108.282 23.1009 106.044 20.8623 103.282 20.8623H71.5597C68.7982 20.8623 66.5597 18.6238 66.5597 15.8623V6.55789C66.5597 3.79647 64.3211 1.55789 61.5597 1.55789H44.1598C41.3984 1.55789 39.1598 3.79647 39.1598 6.55789V15.8623C39.1598 18.6238 36.9212 20.8623 34.1598 20.8623H6.79639Z" fill="#FFF6F1" stroke="#FAD0B9" stroke-width="2"/>
</svg>