<svg xmlns="http://www.w3.org/2000/svg" width="1020" height="689" viewBox="0 0 1020 689" fill="none">
  <path fill-rule="evenodd" clip-rule="evenodd" d="M1018.5 46V656.5C1018.5 673.621 1004.62 687.5 987.5 687.5H59.8446C49.8938 687.5 40.5478 682.723 34.7192 674.658L6.8745 636.129C3.0556 630.844 1 624.491 1 617.971V32C1 14.8792 14.8792 1 32 1H987.5C1004.62 1 1018.5 14.8792 1018.5 32V46ZM963.5 302.5C980.621 302.5 994.5 288.621 994.5 271.5V38.5C994.5 29.1112 986.889 21.5 977.5 21.5H61.5C44.3792 21.5 30.5 35.3792 30.5 52.5V271.5C30.5 288.621 44.3792 302.5 61.5 302.5H963.5ZM38.4707 635.575C34.9028 630.635 32.8701 624.753 32.6265 618.664L30.5 565.5V367.5C30.5 350.379 44.3792 336.5 61.5 336.5H107C124.121 336.5 138 350.379 138 367.5V451C138 468.121 151.879 482 169 482H390C407.121 482 421 495.879 421 513V623.25C421 631.12 427.38 637.5 435.25 637.5C443.12 637.5 449.5 631.12 449.5 623.25V502.5C449.5 485.379 463.379 471.5 480.5 471.5H963.5C980.621 471.5 994.5 485.379 994.5 502.5V633C994.5 650.121 980.621 664 963.5 664H74.8506C64.8964 664 55.5477 659.22 49.7196 651.15L38.4707 635.575ZM188 453.5C170.879 453.5 157 439.621 157 422.5V367.5C157 350.379 170.879 336.5 188 336.5H400C417.121 336.5 431 350.379 431 367.5V422.5C431 439.621 417.121 453.5 400 453.5H188ZM463.5 336.5C455.768 336.5 449.5 342.768 449.5 350.5V439.5C449.5 447.232 455.768 453.5 463.5 453.5C471.232 453.5 477.5 447.232 477.5 439.5V350.5C477.5 342.768 471.232 336.5 463.5 336.5ZM533 453.5C515.879 453.5 502 439.621 502 422.5V367.5C502 350.379 515.879 336.5 533 336.5H718C735.121 336.5 749 350.379 749 367.5V422.5C749 439.621 735.121 453.5 718 453.5H533ZM806.5 444C789.379 444 775.5 430.121 775.5 413V359C775.5 341.879 789.379 328 806.5 328H963.5C980.621 328 994.5 341.879 994.5 359V413C994.5 430.121 980.621 444 963.5 444H806.5Z" fill="white" stroke="#DBDCDF" stroke-width="2"/>
</svg>