<svg xmlns="http://www.w3.org/2000/svg" width="324" height="144" viewBox="0 0 324 144" fill="none">
  <path d="M1 6C1 3.23857 3.23858 1 6 1H70.5C73.2614 1 75.5 3.23858 75.5 6V42C75.5 44.7614 77.7386 47 80.5 47H103.5C106.261 47 108.5 44.7614 108.5 42V6C108.5 3.23858 110.739 1 113.5 1H318C320.761 1 323 3.23858 323 6V137.5C323 140.261 320.761 142.5 318 142.5H95C92.2386 142.5 90 140.261 90 137.5V85C90 82.2386 87.7614 80 85 80H80.5C77.7386 80 75.5 82.2386 75.5 85V137.5C75.5 140.261 73.2614 142.5 70.5 142.5H6C3.23858 142.5 1 140.261 1 137.5V6Z" fill="#F6F1FF" stroke="#CEB9FA" stroke-width="2"/>
</svg>