
<svg xmlns="http://www.w3.org/2000/svg" width="885" height="247" viewBox="0 0 885 247" fill="none">
    <path d="M6 31.5C3.23857 31.5 1 33.7386 1 36.5V152.5C1 155.261 3.23858 157.5 6 157.5H67.5C70.2614 157.5 72.5 155.261 72.5 152.5V109C72.5 106.239 74.7386 104 77.5 104H241C243.761 104 246 106.239 246 109V241C246 243.761 248.239 246 251 246H540C542.761 246 545 243.761 545 241V104C545 101.239 547.239 99 550 99H688C690.761 99 693 101.239 693 104V129C693 131.761 695.239 134 698 134H754.5C757.261 134 759.5 131.761 759.5 129V124.5C759.5 121.739 761.739 119.5 764.5 119.5H878.5C881.261 119.5 883.5 117.261 883.5 114.5V26.5C883.5 23.7386 881.261 21.5 878.5 21.5H845C842.239 21.5 840 19.2614 840 16.5V6C840 3.23858 837.761 1 835 1H761C758.239 1 756 3.23858 756 6V20C756 22.7614 753.761 25 751 25H550C547.239 25 545 22.7614 545 20V18.5C545 15.7386 542.761 13.5 540 13.5H480.5C477.739 13.5 475.5 15.7386 475.5 18.5V129C475.5 131.761 473.261 134 470.5 134H322C319.239 134 317 131.761 317 129V25.5C317 22.7386 314.761 20.5 312 20.5H251C248.239 20.5 246 22.7386 246 25.5V26.5C246 29.2614 243.761 31.5 241 31.5H6Z" fill="#FFFBF1" stroke="#FAEAB9" stroke-width="2"/>
</svg>