<svg xmlns="http://www.w3.org/2000/svg" width="273" height="93" viewBox="0 0 273 93" fill="none">
<path d="M6 1C3.23858 1 1 3.23858 1 6V70.5C1 73.2614 3.23858 75.5 6 75.5H51.5C53.433 75.5 55 73.933 55 72C55 70.067 56.567 68.5 58.5 68.5H97.4517C100.59 68.5 102.953 71.3578 102.362 74.4404L100.138 86.0596C99.5472 89.1422 101.91 92 105.048 92H163.535C165.858 92 167.874 90.4008 168.404 88.1394L172.096 72.3606C172.626 70.0992 174.642 68.5 176.965 68.5H220C221.933 68.5 223.5 70.067 223.5 72C223.5 73.933 225.067 75.5 227 75.5H266.5C269.261 75.5 271.5 73.2614 271.5 70.5V6C271.5 3.23858 269.261 1 266.5 1H223C221.067 1 219.5 2.567 219.5 4.5C219.5 6.433 217.933 8 216 8H58.5C56.567 8 55 6.433 55 4.5C55 2.567 53.433 1 51.5 1H6Z" fill="#F3FFF6" stroke="#A8DBAA" stroke-width="2"/>
</svg>